<?xml version="1.0" encoding="utf-8"?>
<!-- Generator: Adobe Illustrator 19.0.1, SVG Export Plug-In . SVG Version: 6.00 Build 0)  -->
<svg version="1.1" id="Layer_1" xmlns="http://www.w3.org/2000/svg" xmlns:xlink="http://www.w3.org/1999/xlink" x="0px" y="0px"
	 viewBox="0 0 72 72" style="enable-background:new 0 0 72 72;" xml:space="preserve">
<style type="text/css">
	.st0{fill:#EDECED;}
	.st1{fill:#FFFFFF;}
	.st2{fill:#B2B2B2;}
	.st3{fill:#6B6B6B;}
	.st4{fill:#8E8E8E;}
	.st5{fill:none;stroke:#6B6B6B;stroke-width:2;stroke-miterlimit:10;}
</style>
<g>
	<g>
		<path class="st0" d="M43.9,9.9c9.4,9.4,9.4,24.6,0,34s-24.6,9.4-34,0"/>
		<path class="st1" d="M10,43.9c-9.4-9.4-9.4-24.6,0-34s24.6-9.4,34,0"/>
	</g>
	<g>
		
			<rect x="40.1" y="51.2" transform="matrix(0.7071 0.7071 -0.7071 0.7071 53.0563 -21.995)" class="st2" width="25.9" height="3.8"/>
	</g>
	<g>
		<polygon class="st3" points="67.7,67.7 64.3,71 45.9,52.5 46.9,46.9 		"/>
	</g>
	<g>
		<polygon class="st4" points="71,64.3 67.7,67.7 46.9,46.9 52.4,45.7 		"/>
	</g>
	<g>
		<path class="st3" d="M26.9,52.8C12.7,52.8,1,41.2,1,26.9C1,12.6,12.7,1,26.9,1c14.3,0,25.9,11.6,25.9,25.9
			C52.8,41.2,41.2,52.8,26.9,52.8z M26.9,4.8c-12.2,0-22.1,9.9-22.1,22.1C4.8,39.1,14.7,49,26.9,49c12.2,0,22.1-9.9,22.1-22.1
			C49.1,14.7,39.1,4.8,26.9,4.8z"/>
	</g>
	<g>
		<path class="st4" d="M45.3,45.2l-2.7-2.7c8.6-8.6,8.6-22.7,0-31.3c-8.6-8.6-22.7-8.6-31.3,0L8.6,8.6C13.5,3.7,20,1,26.9,1
			s13.4,2.7,18.3,7.6c4.9,4.9,7.6,11.4,7.6,18.3C52.8,33.8,50.2,40.3,45.3,45.2z"/>
	</g>
	<g>
		<path class="st5" d="M39.3,30.8c0,1.6-1.3,2.9-2.9,2.9c-1.6,0-2.9-1.3-2.9-2.9"/>
		<path class="st5" d="M20.4,30.8c0,1.6-1.3,2.9-2.9,2.9s-2.9-1.3-2.9-2.9"/>
		<circle class="st3" cx="27.4" cy="41.6" r="2.2"/>
	</g>
</g>
</svg>
